<svg width="14" height="14" viewBox="0 0 14 14" fill="none" xmlns="http://www.w3.org/2000/svg">
<path fill-rule="evenodd" clip-rule="evenodd" d="M2.14372 5.91496H10.535C10.64 5.91496 10.7362 5.95871 10.815 6.03746L12.145 7.40246C12.39 7.65621 12.215 8.08496 11.865 8.08496H3.47372C3.36872 8.08496 3.27247 8.04121 3.19372 7.96246L1.86372 6.59746C1.61872 6.34371 1.79372 5.91496 2.14372 5.91496ZM1.86372 4.10371L3.19372 2.73871C3.26372 2.65996 3.36872 2.61621 3.47372 2.61621H11.8562C12.2062 2.61621 12.3812 3.04496 12.1362 3.29871L10.815 4.66371C10.745 4.74246 10.64 4.78621 10.535 4.78621H2.14372C1.79372 4.78621 1.61872 4.35746 1.86372 4.10371ZM12.1362 9.88746L10.8062 11.2525C10.7275 11.3312 10.6312 11.375 10.5262 11.375H2.14372C1.79372 11.375 1.61872 10.9462 1.86372 10.6925L3.19372 9.32746C3.26372 9.24871 3.36872 9.20496 3.47372 9.20496H11.8562C12.2062 9.20496 12.3812 9.63371 12.1362 9.88746Z" fill="black"/>
</svg>
