<svg width="10" height="12" viewBox="0 0 10 12" fill="none" xmlns="http://www.w3.org/2000/svg">
<path d="M7.40854 5.12963C7.8442 5.68904 8.07996 6.37825 8.07821 7.08729C8.07891 7.80692 7.83634 8.50565 7.38987 9.07004L7.35254 9.11612L7.34379 9.05429C7.33483 9.00347 7.32452 8.9529 7.31287 8.90263C7.09704 7.93663 6.39879 7.10596 5.24379 6.43279C4.46562 5.98187 4.01821 5.43821 3.90037 4.82104C3.83731 4.43611 3.86935 4.04159 3.99371 3.67188C4.08121 3.38371 4.21771 3.11188 4.39737 2.86921L4.84829 2.30746C4.86661 2.28491 4.88973 2.26673 4.91597 2.25424C4.94221 2.24175 4.9709 2.23527 4.99996 2.23527C5.02901 2.23527 5.0577 2.24175 5.08394 2.25424C5.11018 2.26673 5.1333 2.28491 5.15162 2.30746L7.40854 5.12963ZM8.11846 4.56788L5.11079 0.803625C5.09751 0.786973 5.08065 0.773526 5.06147 0.764285C5.04228 0.755043 5.02125 0.750244 4.99996 0.750244C4.97866 0.750244 4.95763 0.755043 4.93845 0.764285C4.91926 0.773526 4.9024 0.786973 4.88912 0.803625L1.88029 4.57079L1.87096 4.58013C1.29507 5.31243 0.982894 6.21751 0.984873 7.14913C0.985456 9.41246 2.78329 11.25 4.99996 11.25C7.21662 11.25 9.01387 9.41246 9.01387 7.14913C9.01585 6.21751 8.70368 5.31243 8.12779 4.58013L8.11846 4.56788ZM2.60012 5.11738L2.86904 4.78079L2.87837 4.84263L2.89996 4.99079C3.07612 5.92646 3.69679 6.70463 4.73746 7.30662C5.64162 7.83454 6.16662 8.44004 6.31829 9.10387C6.38012 9.38154 6.39237 9.65337 6.36496 9.89137V9.90654L6.35212 9.91238C5.93212 10.1224 5.46954 10.2315 4.99996 10.2309C3.30129 10.2309 1.92112 8.82271 1.92112 7.08729C1.92112 6.34354 2.17371 5.65813 2.60012 5.11738Z" fill="black"/>
</svg>
