<svg width="18" height="17" viewBox="0 0 18 17" fill="none" xmlns="http://www.w3.org/2000/svg">
<path d="M8.69531 0C4.00331 0 0.195312 3.808 0.195312 8.5C0.195312 13.192 4.00331 17 8.69531 17C13.3873 17 17.1953 13.192 17.1953 8.5C17.1953 3.808 13.3873 0 8.69531 0ZM12.6393 5.78C12.5118 7.123 11.9593 10.387 11.6788 11.8915C11.5598 12.529 11.3218 12.7415 11.1008 12.767C10.6078 12.8095 10.2338 12.444 9.75781 12.1295C9.00981 11.6365 8.58481 11.3305 7.86231 10.8545C7.02081 10.302 7.56481 9.996 8.04931 9.503C8.17681 9.3755 10.3528 7.395 10.3953 7.2165C10.4012 7.18946 10.4004 7.1614 10.393 7.13473C10.3856 7.10807 10.3718 7.08362 10.3528 7.0635C10.3018 7.021 10.2338 7.038 10.1743 7.0465C10.0978 7.0635 8.90781 7.854 6.58731 9.418C6.24731 9.6475 5.94131 9.7665 5.66931 9.758C5.36331 9.7495 4.78531 9.588 4.35181 9.4435C3.81631 9.2735 3.39981 9.18 3.43381 8.8825C3.45081 8.7295 3.66331 8.5765 4.06281 8.415C6.54481 7.3355 8.19381 6.6215 9.01831 6.2815C11.3813 5.2955 11.8658 5.1255 12.1888 5.1255C12.2568 5.1255 12.4183 5.1425 12.5203 5.2275C12.6053 5.2955 12.6308 5.389 12.6393 5.457C12.6308 5.508 12.6478 5.661 12.6393 5.78Z" fill="black"/>
</svg>