<svg width="18" height="17" viewBox="0 0 18 17" fill="none" xmlns="http://www.w3.org/2000/svg">
<path fill-rule="evenodd" clip-rule="evenodd" d="M3.28622 0C2.46646 0 1.68028 0.325648 1.10062 0.905306C0.520961 1.48496 0.195313 2.27115 0.195312 3.09091V13.9091C0.195313 14.7289 0.520961 15.515 1.10062 16.0947C1.68028 16.6744 2.46646 17 3.28622 17H14.1044C14.9242 17 15.7103 16.6744 16.29 16.0947C16.8697 15.515 17.1953 14.7289 17.1953 13.9091V3.09091C17.1953 2.27115 16.8697 1.48496 16.29 0.905306C15.7103 0.325648 14.9242 0 14.1044 0H3.28622ZM3.02813 2.70455C2.94354 2.73598 2.86746 2.78674 2.80595 2.85277C2.74444 2.9188 2.6992 2.99828 2.67384 3.08489C2.64847 3.17149 2.64368 3.26282 2.65985 3.3516C2.67601 3.44039 2.71269 3.52417 2.76695 3.59627L7.10504 9.35309L2.53436 14.256L2.50036 14.2955H4.08213L7.8144 10.2935L10.6828 14.1015C10.7493 14.1896 10.8397 14.2569 10.9432 14.2955H14.3602C14.4446 14.2639 14.5206 14.213 14.5819 14.1469C14.6432 14.0808 14.6883 14.0013 14.7135 13.9147C14.7387 13.8281 14.7434 13.7368 14.7271 13.6481C14.7109 13.5594 14.6741 13.4757 14.6198 13.4037L10.2817 7.64691L14.8903 2.70455H13.3062L9.5739 6.70727L6.70399 2.89927C6.63755 2.81084 6.54719 2.74327 6.44359 2.70455H3.02813ZM11.4354 13.1735L4.39199 3.82655H5.95213L12.9948 13.1727L11.4354 13.1735Z" fill="black"/>
</svg>