<svg width="19" height="14" viewBox="0 0 19 14" fill="none" xmlns="http://www.w3.org/2000/svg">
<path fill-rule="evenodd" clip-rule="evenodd" d="M6.56993 1.708C6.76054 1.90488 6.8676 2.17175 6.8676 2.45C6.8676 2.72825 6.76054 2.99512 6.56993 3.192L3.89636 5.95L13.9107 5.95C14.1807 5.95 14.4396 6.06063 14.6304 6.25754C14.8213 6.45445 14.9286 6.72152 14.9286 7C14.9286 7.27848 14.8213 7.54555 14.6304 7.74246C14.4396 7.93938 14.1807 8.05 13.9107 8.05H3.89636L6.56993 10.808C6.74972 11.007 6.8476 11.2703 6.84295 11.5423C6.8383 11.8144 6.73148 12.0739 6.54499 12.2663C6.3585 12.4586 6.1069 12.5688 5.84321 12.5736C5.57951 12.5784 5.32431 12.4775 5.13136 12.292L0 7L5.13 1.708C5.22452 1.61043 5.33676 1.53303 5.4603 1.48022C5.58383 1.42741 5.71624 1.40022 5.84996 1.40022C5.98369 1.40022 6.1161 1.42741 6.23963 1.48022C6.36317 1.53303 6.4754 1.61043 6.56993 1.708ZM16.9643 12.95C16.9643 13.2285 17.0715 13.4955 17.2624 13.6925C17.4533 13.8894 17.7122 14 17.9821 14C18.2521 14 18.511 13.8894 18.7019 13.6925C18.8928 13.4955 19 13.2285 19 12.95V1.05C19 0.771523 18.8928 0.504452 18.7019 0.307538C18.511 0.110625 18.2521 -1.21726e-08 17.9821 0C17.7122 1.21726e-08 17.4533 0.110625 17.2624 0.307538C17.0715 0.504452 16.9643 0.771523 16.9643 1.05V12.95Z" fill="#0A0A0A"/>
</svg>
